mastitorrents.com
  
http://mastitorrents.com/forums/index.php
  
http://thepiratebay.se/user/HDvideos/0/7

Talaash (2012) Hindi Non-Retail DVDRip XviD AC3 ESubs - (DUS)

Source : ICT

General
Complete name                            : H:DownloadsTalaash (2012) Non-Retail DVDRip XviD AC3 ESubs - (DUS)Talaash (2012) Non Retail DVDRip XviD AC3 ESubs - (DUS).avi
Format                                   : AVI
Format/Info                              : Audio Video Interleave
File size                                : 1.29 GiB
Duration                                 : 2h 13mn
Overall bit rate                         : 1 387 Kbps

Video
ID                                       : 0
Format                                   : MPEG-4 Visual
Format profile                           : Advanced Simple@L5
Format settings, BVOP                    : 2
Format settings, QPel                    : No
Format settings, GMC                     : No warppoints
Format settings, Matrix                  : Default (H.263)
Codec ID                                 : XVID
Codec ID/Hint                            : XviD
Duration                                 : 2h 13mn
Bit rate                                 : 1 251 Kbps
Width                                    : 672 pixels
Height                                   : 288 pixels
Display aspect ratio                     : 2.35:1
Frame rate                               : 25.000 fps
Color space                              : YUV
Chroma subsampling                       : 4:2:0
Bit depth                                : 8 bits
Scan type                                : Progressive
Compression mode                         : Lossy
Bits/(Pixel*Frame)                       : 0.258
Stream size                              : 1.16 GiB (90%)
Writing library                          : XviD 1.2.1 (UTC 2008-12-04)

Audio
ID                                       : 1
Format                                   : AC-3
Format/Info                              : Audio Coding 3
Mode extension                           : CM (complete main)
Format settings, Endianness              : Big
Codec ID                                 : 2000
Duration                                 : 2h 13mn
Bit rate mode                            : Constant
Bit rate                                 : 128 Kbps
Channel(s)                               : 2 channels
Channel positions                        : Front: L R
Sampling rate                            : 48.0 KHz
Bit depth                                : 16 bits
Compression mode                         : Lossy
Stream size                              : 122 MiB (9%)
Alignment                                : Aligned on interleaves
Interleave, duration                     : 64 ms (1.60 video frames)
Interleave, preload duration             : 192 ms
Title                                    : VTS_01_1 T80 2_0ch 448Kbps DELAY 0ms_new

Screens: 
http://www.shotpix.com/images/20554530507561658376.png 
http://www.shotpix.com/images/76651735022148741771.png 
http://www.shotpix.com/images/47221720574712823254.png 
http://www.shotpix.com/images/67388942343998678177.png 
http://www.shotpix.com/images/05216301213468538546.png 
http://www.shotpix.com/images/56893082822440134218.png 
http://www.shotpix.com/images/13152144284562383131.png 
http://www.shotpix.com/images/73547136658793638527.png 
http://www.shotpix.com/images/63616684020096625000.png 
http://www.shotpix.com/images/18276847791475482059.png 
http://www.shotpix.com/images/46619634683086052134.png 
http://www.shotpix.com/images/03395728042907040231.png 
http://www.shotpix.com/images/03286098082512935911.png